<svg xmlns="http://www.w3.org/2000/svg" version="1.1" xmlns:xlink="http://www.w3.org/1999/xlink" width="512" height="512" x="0" y="0" viewBox="0 0 512 512" style="enable-background:new 0 0 512 512" xml:space="preserve" class=""><g><path fill="#000000" d="M144.837 256c0 57.661-21.567 104.346-48.158 104.346S48.561 313.66 48.561 256c0-57.617 21.526-104.347 48.118-104.347 26.59 0 48.158 46.73 48.158 104.347z" opacity="1" data-original="#94c1ff" class=""></path><path fill="#000000" d="M126.78 360.346c26.591 0 48.158-46.686 48.158-104.346 0-57.617-21.567-104.347-48.158-104.347H96.678c26.591 0 48.158 46.729 48.158 104.347 0 57.661-21.567 104.346-48.158 104.346z" opacity="1" data-original="#d7e9ff" class=""></path><path fill="#000000" d="M156.872 360.346c26.591 0 48.158-46.686 48.158-104.346 0-57.617-21.567-104.347-48.158-104.347H126.77c26.591 0 48.158 46.729 48.158 104.347 0 57.661-21.567 104.346-48.158 104.346zM404.91 256c0 57.661-21.567 104.346-48.158 104.346S308.634 313.66 308.634 256c0-57.617 21.526-104.347 48.118-104.347 26.59 0 48.158 46.73 48.158 104.347z" opacity="1" data-original="#94c1ff" class=""></path><path fill="#000000" d="M386.853 360.346c26.591 0 48.158-46.686 48.158-104.346 0-57.617-21.567-104.347-48.158-104.347h-30.102c26.591 0 48.158 46.729 48.158 104.347 0 57.661-21.567 104.346-48.158 104.346z" opacity="1" data-original="#d7e9ff" class=""></path><path fill="#000000" d="M416.945 360.346c26.591 0 48.158-46.686 48.158-104.346 0-57.617-21.567-104.347-48.158-104.347h-30.102c26.591 0 48.158 46.729 48.158 104.347 0 57.661-21.567 104.346-48.158 104.346z" opacity="1" data-original="#94c1ff" class=""></path><g fill="#fff"><path d="M490.999 256c0 8.441-6.843 15.284-15.284 15.284h-11.134c.354-5.01.506-10.071.506-15.284s-.152-10.274-.506-15.284h11.134c8.441 0 15.284 6.843 15.284 15.284zM356.785 240.716v30.567H204.531c.354-5.01.506-10.071.506-15.284s-.152-10.274-.506-15.284h152.254zM96.678 240.716v30.567H36.283c-8.441 0-15.284-6.843-15.284-15.284s6.843-15.284 15.284-15.284h60.395z" fill="#000000" opacity="1" data-original="#ffffff" class=""></path></g><path fill="#000000" d="M475.717 235.717h-6.531c-4.506-51.287-25.817-89.063-52.239-89.063h-60.196c-26.396 0-47.629 37.798-52.139 89.063h-95.5c-4.506-51.287-25.817-89.063-52.239-89.063H96.679c-26.396 0-47.631 37.798-52.14 89.063h-8.256C25.097 235.717 16 244.816 16 256s9.097 20.283 20.283 20.283h8.264c4.512 51.26 25.736 89.063 52.131 89.063h60.196c26.422 0 47.733-37.776 52.239-89.063h95.493c4.507 51.268 25.748 89.063 52.146 89.063h60.196c26.422 0 47.733-37.776 52.239-89.063h6.531c11.187 0 20.283-9.099 20.283-20.283s-9.098-20.283-20.284-20.283zM26 256c0-5.671 4.614-10.283 10.283-10.283h55.396v20.566H36.283C30.614 266.283 26 261.671 26 256zm28.596 20.283h42.083c2.764 0 5-2.239 5-5v-30.566c0-2.761-2.236-5-5-5H54.594c4.199-44.492 21.726-79.063 42.085-79.063 23.394 0 43.159 45.496 43.159 99.346s-19.766 99.346-43.159 99.346c-20.359 0-37.881-34.574-42.083-79.063zm64.675 79.063c23.156-21.831 30.566-67.511 30.566-99.346 0-32.047-7.478-77.579-30.566-99.346h7.5c23.394 0 43.159 45.496 43.159 99.346s-19.766 99.346-43.159 99.346zm37.603 0h-7.51c23.18-21.862 30.576-67.422 30.576-99.346 0-32.212-7.526-77.605-30.576-99.346h7.51c30.862 0 43.154 64.324 43.154 99.346 0 36.062-13.024 99.346-43.154 99.346zM210.038 256c0-3.604-.068-7.004-.215-10.283h141.963v20.566H209.823c.147-3.279.215-6.679.215-10.283zm104.618 20.283h42.13c2.764 0 5-2.239 5-5v-30.566c0-2.761-2.236-5-5-5h-42.129c4.197-44.496 21.735-79.063 42.095-79.063 23.394 0 43.159 45.496 43.159 99.346s-19.766 99.346-43.159 99.346c-20.36 0-37.898-34.567-42.096-79.063zm64.689 79.063c23.144-21.82 30.566-67.21 30.566-99.346 0-31.956-7.442-77.545-30.566-99.346h7.5c23.394 0 43.154 45.496 43.154 99.346s-19.761 99.346-43.154 99.346zm37.602 0h-7.515c23.175-21.846 30.581-67.359 30.581-99.346 0-32.012-7.484-77.573-30.581-99.346h7.515c30.752 0 43.14 64.172 43.14 99.346 0 34.062-12.529 99.346-43.14 99.346zm58.77-89.063h-5.845c.171-3.822.229-9.777.229-10.283s-.068-6.676-.229-10.283h5.845c5.669 0 10.283 4.612 10.283 10.283s-4.614 10.283-10.283 10.283z" opacity="1" data-original="#116fff" class=""></path></g></svg>