<svg xmlns="http://www.w3.org/2000/svg" version="1.1" xmlns:xlink="http://www.w3.org/1999/xlink" width="512" height="512" x="0" y="0" viewBox="0 0 500 500" style="enable-background:new 0 0 512 512" xml:space="preserve" class=""><g><g fill-rule="evenodd" clip-rule="evenodd"><path fill="#000000" d="M178.858 136.141c-14.496-30.286-28.619-42.49-42.368-36.614-13.749 5.875-25.022 32.264-32.26 45.424l-24.557 44.65c-31.307 56.924 29.298 61.65 60.836 47.968-6.773 22.262-11.16 39.253-18.423 54.696l-11.453 25.588 60.184-1.423c-1.421-9.972-10.779-16.091-22.379-21.232 24.509-48.126 35.152-64.437 35.152-64.437 11.111-27.755-28.98-23.743-47.267-26.453l42.535-68.167z" opacity="1" data-original="#19cfba" class=""></path><path fill="#000000" d="M208.039 104.989c-6.099-3.05-8.88-10.238-6.419-16.598a13.224 13.224 0 0 1 15.917-7.959c28.652 8.067.878 70.023-5.023 87.388a12.26 12.26 0 0 1-17.634 6.788c-27.821-15.506-68.231-51.518-50.831-69.174 18.045-18.311 35.574 16.417 49.797 32.672l14.193-33.117z" opacity="1" data-original="#f0b16e" class=""></path><path fill="#000000" d="M154.735 44.797c14.268 0 25.834 11.566 25.834 25.834 0 14.267-11.566 25.833-25.834 25.833-14.267 0-25.833-11.566-25.833-25.833 0-14.268 11.566-25.834 25.833-25.834z" opacity="1" data-original="#f0b16e" class=""></path><path fill="#000000" d="m324.804 176.664-8.87 84.81c-28.74 11.021-48.317 14.384-48.317 14.384l-15.329 32.19c7.331 7.62 21.934 4.232 32.546-11.306 4.077-.305 21.697-.24 35.909-1.661 9.736-.973 17.873-2.645 18.958-5.61 4.405-12.035 6.679-25.405 12.092-39.565l20.286-53.067-47.275-20.175z" opacity="1" data-original="#60b7fe" class=""></path><path fill="#000000" d="M340.091 95.05c21.055-5.531 35.289-7.069 42.703-4.615 12.424 30.139 9.626 65.142-4.311 108.926 18.385 8.686 38.98 10.146 37.208 27.746 0 0 1.082 24.363-5.69 62.201 17.147 6.684 15.818 19.884 6.586 22.886l-40.043.414c9.372-26.053 7.741-38.427 10.532-66.158-85.432-22.254-67.334-55.053-52.784-118.337l5.799-33.063z" opacity="1" data-original="#60b7fe" class=""></path><path fill="#000000" d="M369.457 39.832c14.093 1.419 24.367 13.993 22.949 28.086-1.419 14.093-13.993 24.368-28.086 22.949-14.093-1.418-24.367-13.993-22.949-28.086 1.419-14.092 13.993-24.367 28.086-22.949z" opacity="1" data-original="#f0b16e" class=""></path><path fill="#000000" d="M333.166 86.276c-14.94 7.849-34.364 21.63-55.868 42.137-13.358 10.915-11.932 24.146-1.016 37.505l19.792 24.2c1.992 6.644 8.734 10.661 15.526 9.251 6.791-1.41 11.376-7.78 10.558-14.668-.818-6.887-5.496-13.671-12.429-13.452-7.787-18.613-12.951-26.255-12.951-26.255l39.617-28.195c26.901-17.615 11.557-37.663-3.229-30.523z" opacity="1" data-original="#f0b16e" class=""></path><path fill="#000000" d="M364.781 371.647a30.402 30.402 0 0 1 1.911 20.446c-7.759 30.359-51.028 22.81-76.077 23.248-36.815.643-93.617.984-179.541 2.453-4.24-.369-12.534-2.135-13.727 1.95-2.331 7.987-1.865 13.733-.284 20.945 3.049 13.911-16.362 10.216-25.497 9.353-2.618-20.942 4.523-44.09 14.833-62.074l111.007-12.656 31.721-11.783c21.542-8.002 17.98-7.435 40.564-7.532l51.324-.222c18.443-.08 34.328-4.34 43.766 15.872z" opacity="1" data-original="#fa6e85" class=""></path><path fill="#000000" d="M348.488 467.244c52.195-1.074 76.557-1.254 76.557-1.254 3.888-7.105 5.533-15.393 4.851-22.7-.79-8.462-2.542-12.702-12.242-11.15-5.45.872-6.298 4.332-8.986 12.399-10.903-2.998-30.337-.94-42.434.446 3.43-15.413 14.952-52.97 6.025-63.953-3.568-4.389-10.188-4.867-15.466-2.83-21.644 8.35-16.07 71.863-8.305 89.042z" opacity="1" data-original="#f0b16e" class=""></path><circle cx="395.009" cy="358.635" r="25.834" fill="#000000" transform="rotate(-45 394.973 358.734)" opacity="1" data-original="#f0b16e" class=""></circle><path fill="#000000" d="M171.613 97.834c7.809 6.941 14.53 16.542 21.011 25.193l8.305-19.38c-9.942-9.842-7.373-26.693 5.289-33.023 4.449-2.225 9.685-2.853 14.777-1.419 22.823 6.425 20.478 34.145 13.133 60.236-3.301 11.725-7.563 23.055-10.712 31.428-1.266 3.366-2.343 6.23-3.107 8.478-3.949 11.624-17.398 16.81-28.129 10.83-7.811-4.353-16.531-10.189-24.842-16.78l-20.817 33.362c10.605.688 22.864 1.329 32.1 5.027 12.171 4.872 18.971 13.757 12.111 30.893l-.016-.007c-.651 1.62-9.742 14.85-33.87 61.856 10.094 5.282 19.261 12.582 20.939 24.364l-.012.002c.562 3.988-2.469 7.591-6.514 7.687l-62.784 1.485c-5.238.21-8.526-5.011-6.529-9.48l11.989-26.785.004.002c6.519-14.411 9.732-25.437 15.245-44.003-18.12 4.576-42.982 4.987-57.857-6.974-17.152-13.792-12.961-36.245-1.551-56.991l25.705-46.738c8.609-15.654 17.775-37.351 31.678-47.418-17.085-22.106-1.303-54.46 26.763-54.46 18.669 0 33.806 15.137 33.806 33.806-.002 12.027-6.311 22.775-16.115 28.809zm223.979 227.062c-16.289 0-30.089 11.583-33.169 27.249-10.696-5.675-24.536-3.44-37.152-3.385l-53.724.232c-20.853.079-20.757-.691-39.625 6.379l-37.539 13.954-115.151 13.129a6.749 6.749 0 0 0-5.387 3.386c-11.709 20.447-13.343 45.259-10.472 68.222l.019-.002a6.743 6.743 0 0 0 6.058 5.894c5.866.555 15.997 1.559 24.045-.206 9.678-2.122 16.517-7.404 13.962-19.054-1.692-7.721-5.503-9.525-4.661-13.676.546.006 1.301.061 2.16.136l.002-.024c.225.019.454.027.685.024 53.743-.918 96.444-1.415 130.352-1.809 23.093-.268 42.132-.49 57.585-.759 13.135-.229 26.191 1.198 40.638.197.552 17.066 3.631 35.387 7.712 44.431a6.755 6.755 0 0 0 6.742 3.954c54.371-1.117 79.504-1.303 79.578-1.303a6.738 6.738 0 0 0 5.892-3.514 49.84 49.84 0 0 0 4.984-13.458c1.776-8.311 1.787-21.759-3.741-27.837-3.448-3.791-8.314-5.241-15.956-4.018-8.02 1.283-10.31 4.688-12.875 11.898-9.227-1.214-21.656-.429-31.082.475 3.258-13.09 7.704-31.047 7.56-45.313 22.065 8.834 46.362-7.413 46.362-31.396.004-18.67-15.133-33.806-33.802-33.806zm14.34 19.466c7.918 7.918 7.918 20.76 0 28.678-12.738 12.738-34.616 3.676-34.616-14.339-.001-18.012 21.876-27.078 34.616-14.339zm-57.195 115.243c-3.187-10.199-5.49-27.953-5.085-44.148.42-16.826 3.459-32.273 11.185-35.765 2.61-1.176 7.043-1.526 8.903.76 5.746 7.069-1.088 34.53-5.423 51.947-.776 3.119-1.474 5.923-2.118 8.782-1.364 5.164 2.738 9.185 7.232 8.671 11.025-1.261 31.549-3.507 41.882-.68a6.735 6.735 0 0 0 8.164-4.384c1.289-3.893 2.467-8.178 4.069-8.435 2.512-.402 3.641-.444 3.855-.209.594.653.908 2.782 1.192 5.83.499 5.348-.518 11.314-2.631 16.457-8.949.094-32.223.385-71.225 1.174zm-18.41-48.363c-14.023 1.112-27.665-.364-40.956-.131-15.662.274-34.56.493-57.48.759-33.932.394-76.632.89-129.884 1.799-2.953-.251-5.675-.259-8.386.678-3.627 1.254-6.278 3.712-7.614 8.287-3.402 11.652 2.883 14.718 4.24 20.913 1.024 4.673-15.416 3.643-18.032 3.459-1.544-17.347-.103-35.909 7.771-51.503l112.662-12.845c.72-.079 1.4-.269 2.027-.551l32.789-12.18c1.895-.704 3.605-1.345 5.161-1.928 14.997-5.619 14.353-5.473 30.634-5.52l58.064-.246c11.447-.049 24.339-2.259 32.563 3.646-16.727 3.722-22.448 24.037-23.559 45.363zm5.878-321.946c-18.977 9.989-39.374 26.297-56.877 42.971a6.771 6.771 0 0 1-.544.466c-11.164 8.904-8.498 19.167.049 29.635l.013-.01 20.718 25.332c1.757 2.148 1.115 4.497 4.472 6.497 3.049 1.817 7.051 1.11 9.293-1.611 4.093-4.968-.336-13.751-4.491-13.62a6.744 6.744 0 0 1-6.438-4.152l-.009.004c-7.876-18.827-12.909-26.272-12.923-26.294-2.109-3.136-1.325-7.235 2.009-9.5l30.416-21.646 10.955-7.789-.007-.01c19.672-12.882 12.062-24.34 3.364-20.273zm-35.435 6.911c-9.518 7.178-19.809 15.868-30.612 26.161-8.204 6.8-12.046 14.52-12.271 22.797-.227 8.382 3.588 17.465 10.508 25.743l-.013.011 19.959 24.404a20.692 20.692 0 0 0 8.771 10.437 20.717 20.717 0 0 0 13.419 2.744l-4.908 46.932c-27.321 10.136-45.409 13.244-45.464 13.253a6.751 6.751 0 0 0-4.941 3.752l-16.046 33.695a6.763 6.763 0 0 0 1.639 7.985c5.439 5.057 12.07 6.878 19.911 5.141 8.513-1.886 16.244-7.789 22.166-15.455 10.656-.326 21.917-.348 34.703-1.626 8.784-.878 22.621-2.348 25.526-10.285 4.967-13.574 7.138-26.941 12.631-41.309l2.614-6.84c4.99 1.786 10.429 3.504 16.355 5.162-1.939 21.819-1.473 38.905-10.051 61.771-1.734 4.621 1.684 9.236 6.328 9.193l41.482-.429a6.73 6.73 0 0 0 2.468-.322c14.204-4.619 17.385-23.954-1.465-34.306 5.757-34.533 5.301-57.571 5.193-60.998 1.633-18.655-12.344-23.746-29.02-29.814-2.762-1.005-5.617-2.044-8.458-3.191 10.621-35.182 16.253-71.238 5.6-104.391 14.221-11.377 16.596-32.801 4.781-47.261-11.736-14.363-32.885-16.526-47.26-4.78-12.17 9.945-15.842 26.981-8.822 41.015a22.625 22.625 0 0 0-5.269 1.8c-7.432 3.651-19.699 11.655-29.454 19.011zm57.945-2.922c5.345 1.108 10.724.926 15.928-.537 9.227 31.276 2.534 66.357-8.09 99.809a6.737 6.737 0 0 0 3.546 8.126l-.006.012c5.024 2.374 10.125 4.23 14.964 5.991 11.444 4.164 21.022 7.65 20.153 16.288-.036.36-.041.717-.021 1.068.076 2.038.804 26.298-5.856 63.513a6.74 6.74 0 0 0 4.202 7.474l-.001.003c4.355 1.697 9.509 5.061 9.596 8.47.031 1.232-1.002 2.319-1.625 2.474l-31.188.323c6.828-22.436 6.124-39.27 8.362-61.756a6.746 6.746 0 0 0-5.18-7.229c-14.47-3.565-33.407-10.004-45.354-18.253-6.511-4.495-10.879-9.349-13.618-14.665l.527-5.041a20.714 20.714 0 0 0 2.326-4.736c2.641-8.018.263-17.246-5.473-23.38 1.47-9.153 4.02-19.466 6.838-30.864 1.13-4.569 2.3-9.3 3.351-13.714l8.137-5.791.004.005c13.148-8.606 18.746-18.667 18.478-27.59zm-43.44 45.349c-1.816 7.347-3.508 14.253-4.878 20.812-2.576-5.593-4.748-9.813-6.381-12.799zm65.84-90.966c3.261 3.991 5 9.227 4.443 14.76-1.795 17.839-24.341 24.431-35.557 10.704-7.019-8.59-5.773-21.264 2.825-28.29 8.59-7.018 21.264-5.771 28.289 2.826zm-35.287 191.027-2.707 7.081c-5.677 14.85-7.916 28.489-12.684 41.521-.297.811-.478-.899-1.929-.509-10.372 2.786-32.639 3.224-41.959 3.442-3.73.087-6.573.154-7.705.239v.007a6.739 6.739 0 0 0-5.073 2.926c-4.427 6.484-12.393 13.931-19.703 12.903l11.9-24.988c7.186-1.516 24.968-5.752 48.337-14.713l-.004-.009a6.743 6.743 0 0 0 4.31-5.618l3.894-37.235c6.457 6.113 14.528 10.946 23.323 14.953zM152.809 89.272a17.527 17.527 0 0 1 1.716.021 20.214 20.214 0 0 0 13.734-5.929c12.739-12.739 3.675-34.616-14.339-34.616-18.013 0-27.078 21.878-14.339 34.616a20.218 20.218 0 0 0 13.228 5.908zm4.138 65.263c-13.617-12.537-33.83-35.374-22.64-53.428-10.557 8.071-19.86 29.52-26.992 42.488L81.61 190.334c-12.776 23.231-12.813 42.169 14.488 46.259 13.283 1.99 29.001-.446 40.606-5.481a6.733 6.733 0 0 1 9.112 8.137l.003.001c-5.92 19.465-11.552 40.944-19.578 58.046l.003.001-7.63 17.047 41.863-.99c-3.666-3.788-9.597-6.933-15.527-9.552-3.544-1.565-5.051-5.79-3.299-9.246l-.004-.002c22.862-44.891 34.449-63.733 36.739-67.362 2.736-7.259.057-10.942-4.788-12.882-10.302-4.124-28-3.441-39.586-5.146-5.062-.745-7.283-6.375-4.619-10.471zm51.851-62.943a7.09 7.09 0 0 0 3.188 3.66 6.749 6.749 0 0 1 3.453 8.801l-14.857 34.666-.005-.002c-1.906 4.488-7.961 5.589-11.277 1.799-7.935-9.069-16.078-22.279-24.578-30.655-5.989-5.902-12.087-8.916-17.666-3.254-8.72 8.849 8.07 27.326 15.462 34.611 10.577 10.425 24.351 20.567 36.214 27.177 3.339 1.861 7.519.358 8.788-3.379 5.391-15.865 31.727-76.643 9.829-82.809-5.695-1.605-10.641 3.983-8.551 9.385z" opacity="1" data-original="#1e2f3f" class=""></path></g></g></svg>