<svg xmlns="http://www.w3.org/2000/svg" version="1.1" xmlns:xlink="http://www.w3.org/1999/xlink" width="512" height="512" x="0" y="0" viewBox="0 0 60 60" style="enable-background:new 0 0 512 512" xml:space="preserve" class=""><g><path fill="#000000" d="M8 47h44v10H8z" opacity="1" data-original="#3f6582" class=""></path><path fill="#000000" d="M32.97 11.67a4 4 0 1 0-5.94 0L28 14l-1 2.42a8 8 0 1 1 6 0L32 14z" opacity="1" data-original="#bbc6d8" class=""></path><path fill="#000000" d="M55 47v-2.824a16.106 16.106 0 0 0-7.614-13.627L30 20 12.614 30.549A16.106 16.106 0 0 0 5 44.176V47h1v7H5a4 4 0 0 1-4-4v-5.824a20 20 0 0 1 9.518-17.033L27 17v-5a2.006 2.006 0 0 1 2-2h2a2.006 2.006 0 0 1 2 2v5l16.482 10.143A20 20 0 0 1 59 44.176V50a4 4 0 0 1-4 4h-1v-7z" opacity="1" data-original="#3f6582" class=""></path><rect width="4" height="14" x="5" y="45" fill="#000000" rx="2" opacity="1" data-original="#dd5673" class=""></rect><rect width="4" height="14" x="51" y="45" fill="#000000" rx="2" opacity="1" data-original="#dd5673" class=""></rect><path fill="#000000" d="m50.007 26.291-15.471-9.519a9 9 0 1 0-9.072 0L9.993 26.291A21.139 21.139 0 0 0 0 44.176V50a5.009 5.009 0 0 0 4 4.9V57a2.993 2.993 0 0 0 5.816 1h40.368A2.993 2.993 0 0 0 56 57v-2.1a5.009 5.009 0 0 0 4-4.9v-5.824a21.139 21.139 0 0 0-9.993-17.885zM27.1 9.7A2.954 2.954 0 0 1 27 9a3 3 0 0 1 6 0 2.954 2.954 0 0 1-.095.7A2.969 2.969 0 0 0 31 9h-2a2.969 2.969 0 0 0-1.9.7zM23 9a7 7 0 1 1 11 5.726v-2.765A4.955 4.955 0 0 0 35 9a5 5 0 0 0-10 0 4.955 4.955 0 0 0 1 2.961v2.765A6.962 6.962 0 0 1 23 9zM7 58a1 1 0 0 1-1-1V47a1 1 0 0 1 2 0v10a1 1 0 0 1-1 1zm3-10h4a1 1 0 0 0 0-2H9.816A2.947 2.947 0 0 0 6 44.184v-.008A15.1 15.1 0 0 1 13.133 31.4L30 21.17 46.861 31.4A15.1 15.1 0 0 1 54 44.176v.008A2.947 2.947 0 0 0 50.184 46H18a1 1 0 0 0 0 2h32v8H10zm44 9a1 1 0 0 1-2 0V47a1 1 0 0 1 2 0zm4-7a3 3 0 0 1-2 2.816v-8.64a17.115 17.115 0 0 0-8.1-14.482L30.519 19.146a1 1 0 0 0-1.038 0L12.09 29.7A17.114 17.114 0 0 0 4 44.176v8.64A3 3 0 0 1 2 50v-5.824a19.127 19.127 0 0 1 9.042-16.182l16.482-10.142A1 1 0 0 0 28 17v-5a1 1 0 0 1 1-1h2a1 1 0 0 1 1 1v5a1 1 0 0 0 .476.852l16.482 10.142A19.127 19.127 0 0 1 58 44.176z" opacity="1" data-original="#373737" class=""></path></g></svg>