<svg xmlns="http://www.w3.org/2000/svg" version="1.1" xmlns:xlink="http://www.w3.org/1999/xlink" width="512" height="512" x="0" y="0" viewBox="0 0 64 64" style="enable-background:new 0 0 512 512" xml:space="preserve" class=""><g><g data-name="15-Gym"><path fill="#000000" d="m58.293 8.293-2.586-2.586a2.414 2.414 0 0 0-3.414 0L5.707 52.293a2.414 2.414 0 0 0 0 3.414l2.586 2.586a2.414 2.414 0 0 0 3.414 0l46.586-46.586a2.414 2.414 0 0 0 0-3.414Z" opacity="1" data-original="#e7eaef"></path><path fill="#000000" d="m27 56-4.293 4.293A2.414 2.414 0 0 1 21 61a2.414 2.414 0 0 1-1.707-.707L3.707 44.707A2.414 2.414 0 0 1 3 43a2.414 2.414 0 0 1 .707-1.707L8 37Z" opacity="1" data-original="#4e5460" class=""></path><path fill="#000000" d="m10.293 28.707-3.586 3.586A2.414 2.414 0 0 0 6 34a2.414 2.414 0 0 0 .707 1.707l21.586 21.586A2.414 2.414 0 0 0 30 58a2.414 2.414 0 0 0 1.707-.707l3.586-3.586A2.414 2.414 0 0 0 36 52a2.414 2.414 0 0 0-.707-1.707L13.707 28.707A2.414 2.414 0 0 0 12 28a2.414 2.414 0 0 0-1.707.707Z" opacity="1" data-original="#565d69" class=""></path><path fill="#000000" d="m37 8 4.293-4.293A2.414 2.414 0 0 1 43 3a2.414 2.414 0 0 1 1.707.707l15.586 15.586A2.414 2.414 0 0 1 61 21a2.414 2.414 0 0 1-.707 1.707L56 27Z" opacity="1" data-original="#4e5460" class=""></path><path fill="#000000" d="m53.707 35.293 3.586-3.586A2.414 2.414 0 0 0 58 30a2.414 2.414 0 0 0-.707-1.707L35.707 6.707A2.414 2.414 0 0 0 34 6a2.414 2.414 0 0 0-1.707.707l-3.586 3.586A2.414 2.414 0 0 0 28 12a2.414 2.414 0 0 0 .707 1.707l21.586 21.586A2.414 2.414 0 0 0 52 36a2.414 2.414 0 0 0 1.707-.707Z" opacity="1" data-original="#565d69" class=""></path><path d="M62 21a3.39 3.39 0 0 0-1-2.414L56.914 14.5 59 12.415a3.414 3.414 0 0 0 0-4.83L56.414 5a3.496 3.496 0 0 0-4.828 0L49.5 7.086 45.414 3a3.496 3.496 0 0 0-4.828 0L37 6.586 36.414 6a3.496 3.496 0 0 0-4.828 0L28 9.585a3.414 3.414 0 0 0 0 4.83l7.086 7.085L21.5 35.086 14.414 28a3.497 3.497 0 0 0-4.828 0L6 31.585a3.414 3.414 0 0 0 0 4.83l.586.585L3 40.585a3.414 3.414 0 0 0 0 4.83L7.086 49.5 5 51.585a3.414 3.414 0 0 0 0 4.83L7.586 59a3.414 3.414 0 0 0 4.828 0l2.086-2.086L18.586 61a3.414 3.414 0 0 0 4.828 0L27 57.414l.586.586a3.414 3.414 0 0 0 4.828 0L36 54.415a3.414 3.414 0 0 0 0-4.83L28.914 42.5 42.5 28.914 49.586 36a3.415 3.415 0 0 0 4.828 0L58 32.415a3.414 3.414 0 0 0 0-4.83L57.414 27 61 23.415A3.392 3.392 0 0 0 62 21ZM53 6.415a1.447 1.447 0 0 1 2 0L57.586 9a1.414 1.414 0 0 1 0 2L55.5 13.086 50.914 8.5Zm-42 51.17a1.447 1.447 0 0 1-2 0L6.414 55a1.414 1.414 0 0 1 0-2L8.5 50.914l4.586 4.586Zm11 2a1.447 1.447 0 0 1-2 0L4.414 44a1.414 1.414 0 0 1 0-2L8 38.414 25.586 56ZM35 52a1.403 1.403 0 0 1-.414 1L31 56.585a1.447 1.447 0 0 1-2 0L7.414 35a1.414 1.414 0 0 1 0-2L11 29.414a1.448 1.448 0 0 1 2 0L34.586 51A1.4 1.4 0 0 1 35 52Zm-7.5-10.914L22.914 36.5 36.5 22.914l4.586 4.586ZM56.586 31 53 34.586a1.448 1.448 0 0 1-2 0L29.414 13a1.414 1.414 0 0 1 0-2L33 7.415a1.414 1.414 0 0 1 2 0L56.586 29a1.414 1.414 0 0 1 0 2Zm3-9L56 25.586 38.414 8 42 4.415a1.447 1.447 0 0 1 2 0L59.586 20a1.414 1.414 0 0 1 0 2Z" fill="#000000" opacity="1" data-original="#000000" class=""></path></g></g></svg>