<svg xmlns="http://www.w3.org/2000/svg" version="1.1" xmlns:xlink="http://www.w3.org/1999/xlink" width="512" height="512" x="0" y="0" viewBox="0 0 68 68" style="enable-background:new 0 0 512 512" xml:space="preserve" class=""><g><path fill="#f97316" d="M29.9 64.9c-7-.7-14.1-4-17.5-10.1-3.5-6.2-2.6-13.9-.2-20.5.7 1.9 1.4 3.9 2.1 5.8.2.6.4 1.2 1 1.5.8.5 1.9.1 2.4-.7s.6-1.7.5-2.6c-.3-3.9-2.5-7.5-2.6-11.3-.1-4.5 2.7-8.5 6.2-11.3.1 1.6.5 3.1 1 4.6.2.6.5 1.2 1.1 1.3.4 0 .8-.2 1.1-.5 2.9-2.4 4.7-5.9 5.3-9.6.3-1.9.3-3.8-.1-5.6-.1-.4-.9-2.4-.7-2.7.3-.5 1.9.7 2.3.9 6.4 4 10.6 11.4 10.8 18.9 0 1.2.2 2.7 1.3 2.9.7.1 1.4-.3 1.7-.9s.4-1.3.5-2c4.6 4 7.9 9.1 10.1 14.7 1.3 3.3 2.2 6.9 1.5 10.4-.6 3.2-2.2 6.1-4.3 8.5-3.7 4.2-8.6 7.5-14.2 8-3 .4-6.1.5-9.3.3z" opacity="1" data-original="#f95353" class=""></path><path fill="#f97316" d="M46.9 60.4c-.2.7-.5 1.4-.8 2.1-2.1 1.1-4.4 1.9-6.9 2.2-1.8.2-3.7.3-5.7.3-1.2 0-2.4 0-3.7-.1-2.2-.2-4.4-.7-6.6-1.5-1.1-1.7-1.9-3.6-2.2-5.5-.7-4.2.6-8.7 3-12.2.4-.6 1.2-.4 1.4.3.7 2.2 2.1 4.3 3.8 6 .5.5 1.3.2 1.4-.5.2-2.4.7-6.7 1.5-9 1.1-2.9 2.7-5.8 5.2-7.7.5-.4 1.2-.2 1.3.5.5 2.9 1.9 5.6 3.4 8.2 1.7 2.9 3.6 5.8 4.6 9.1.9 2.4 1 5.2.3 7.8z" opacity="1" data-original="#ffffff" class=""></path><path fill="#ffb887" d="M46.9 60.4c-.2.7-.5 1.4-.8 2.1-2.1 1.1-4.4 1.9-6.9 2.2-1.8.2-3.7.3-5.7.3-1.2 0-2.4 0-3.7-.1-2.2-.2-4.4-.7-6.6-1.5-1.1-1.7-1.9-3.6-2.2-5.5-.7-4.2.6-8.7 3-12.2.4-.6 1.2-.4 1.4.3.7 2.2 2.1 4.3 3.8 6 .5.5 1.3.2 1.4-.5.2-2.4.7-6.7 1.5-9 1.1-2.9 2.7-5.8 5.2-7.7.5-.4 1.2-.2 1.3.5.5 2.9 1.9 5.6 3.4 8.2 1.7 2.9 3.6 5.8 4.6 9.1.9 2.4 1 5.2.3 7.8z" opacity="1" data-original="#ffd550" class=""></path><path d="M15.8 40.7c-.3-.2-.4-.7-.6-1l-2.1-5.8c-.1-.4-.5-.7-.9-.7s-.8.3-.9.7c-1.7 4.7-4 13.8.3 21.4 3.3 5.9 10.6 10.8 22 10.8 9 0 14.5-1.8 20.6-8.7 2.4-2.7 3.9-5.8 4.6-9 .6-3.2.1-6.8-1.5-10.9-2.4-6.1-5.9-11.1-10.4-15.1-.3-.2-.7-.3-1-.2s-.6.5-.6.8c-.1.6-.1 1.2-.4 1.6-.2.3-.5.5-.6.4-.3-.1-.5-.6-.6-2-.3-7.8-4.7-15.6-11.4-19.8l-.2-.1c-1-.7-1.9-1.2-2.7-1.1-.4.1-.6.3-.8.6-.4.6-.1 1.3.4 2.7.1.3.2.5.2.7 1 5.3-1 11-4.9 14.3-.2.2-.3.2-.3.3 0 0-.2-.2-.3-.6-.5-1.4-.8-2.9-.9-4.4 0-.4-.3-.7-.6-.8s-.7-.1-1 .1c-4.3 3.4-6.7 7.8-6.6 12.1.1 2.2.7 4.2 1.4 6.2.6 1.8 1.1 3.5 1.3 5.2.1.9 0 1.6-.3 2-.5.3-1 .5-1.2.3zm12.8 11.9c.5.5 1.2.7 1.9.4.7-.2 1.1-.8 1.2-1.5.2-2.3.6-6.5 1.5-8.8 1.1-3 2.6-5.4 4.6-7.1.6 3 2 5.7 3.5 8.2.3.4.5.9.8 1.3 1.4 2.4 2.9 4.9 3.7 7.6.7 2.5.8 5.1.2 7.4-.1.5-.3 1.1-.6 1.6-3.7 1.9-7 2.2-11.8 2.2h-1.2c-2.7-.1-5.2-.3-8.4-1.4-1-1.5-1.6-3.2-1.9-4.9-.6-3.7.4-7.7 2.6-11.1.7 2.1 2 4.2 3.9 6.1zm-9.5-14.4c-.1-2-.8-3.9-1.3-5.7-.6-1.9-1.2-3.7-1.3-5.6-.1-3.2 1.6-6.6 4.4-9.3.2 1 .5 2 .8 3 .5 1.5 1.4 1.9 2 1.9.9.1 1.5-.5 1.8-.7 4.7-3.9 6.7-10.4 5.6-16.2 0-.2-.1-.5-.3-.9.2.1.3.2.4.3 6.1 3.9 10.2 11 10.3 18.1 0 2.3.8 3.6 2.1 3.9 1 .2 2.2-.3 2.8-1.4.1-.2.2-.4.3-.5 3.6 3.6 6.5 8 8.6 13.2 1.5 3.8 2 7 1.4 9.8-.5 2.9-2 5.6-4.1 8-1.5 1.6-3 3-4.7 4.2.6-2.5.5-5.3-.3-8-.8-2.9-2.4-5.5-3.9-8.1-.3-.4-.5-.9-.8-1.3-1.4-2.4-2.8-5.1-3.3-7.9-.1-.6-.5-1.1-1.1-1.4-.6-.2-1.3-.1-1.8.3-2.3 1.9-4.2 4.7-5.5 8.2-.9 2.3-1.3 6.4-1.5 8.9-1.6-1.7-2.7-3.5-3.2-5.2-.2-.7-.8-1.2-1.5-1.3s-1.3.2-1.7.7c-2.7 3.9-3.9 8.6-3.2 12.9.2 1.2.5 2.3 1 3.4-3.4-1.7-6.2-4.2-7.9-7.2-3.1-5.6-2.3-12.3-1-16.9l1.1 3c.2.6.5 1.5 1.4 2.1 1.3.8 3 .2 3.7-1 .8-1.1.8-2.4.7-3.3z" fill="#101010" opacity="1" data-original="#000000" class=""></path></g></svg>