<svg xmlns="http://www.w3.org/2000/svg" version="1.1" xmlns:xlink="http://www.w3.org/1999/xlink" width="512" height="512" x="0" y="0" viewBox="0 0 24 24" style="enable-background:new 0 0 512 512" xml:space="preserve" class=""><g><path fill="#000000" d="M12 9.333A6.667 6.667 0 0 0 6.666 20h10.668A6.667 6.667 0 0 0 12 9.333z" opacity="1" data-original="#280d0d" class=""></path><g fill-rule="evenodd" clip-rule="evenodd"><path fill="#000000" d="M9.706 5.248a3.12 3.12 0 0 0-2.96 4.108l.853 2.56a.624.624 0 1 1-1.185.396L5.561 9.75C4.618 6.92 6.724 4 9.706 4h4.588c2.982 0 5.088 2.922 4.145 5.75l-.854 2.562a.624.624 0 1 1-1.184-.395l.854-2.56a3.12 3.12 0 0 0-2.96-4.109z" opacity="1" data-original="#280d0d" class=""></path><path fill="#000000" d="M5.33 12.218A7.632 7.632 0 0 0 4.332 16c0 1.725.571 3.32 1.534 4.6a1 1 0 0 0 .8.4h10.667a1 1 0 0 0 .8-.4 7.637 7.637 0 0 0 1.533-4.6 7.632 7.632 0 0 0-.996-3.782l.717-2.15C20.547 6.59 17.958 3 14.294 3H9.706C6.04 3 3.453 6.59 4.612 10.067zm1.084.094.012.03A6.645 6.645 0 0 0 5.333 16c0 1.5.496 2.886 1.333 4h10.668a6.637 6.637 0 0 0 1.333-4 6.644 6.644 0 0 0-1.093-3.658.616.616 0 0 0 .011-.03l.854-2.561C19.382 6.92 17.276 4 14.294 4H9.706C6.724 4 4.618 6.922 5.56 9.75zm9.396-1.783a6.7 6.7 0 0 1 .827.681l.618-1.854a3.12 3.12 0 0 0-2.96-4.108h-4.59a3.12 3.12 0 0 0-2.96 4.108l.618 1.854A6.636 6.636 0 0 1 12 9.333c1.417 0 2.73.442 3.81 1.196zm-7.948-.984A7.63 7.63 0 0 1 12 8.333c1.524 0 2.944.445 4.138 1.212l.168-.505a2.12 2.12 0 0 0-2.012-2.792H9.706A2.12 2.12 0 0 0 7.694 9.04z" opacity="1" data-original="#000000" class=""></path></g></g></svg>