<svg xmlns="http://www.w3.org/2000/svg" version="1.1" xmlns:xlink="http://www.w3.org/1999/xlink" width="512" height="512" x="0" y="0" viewBox="0 0 64 64" style="enable-background:new 0 0 512 512" xml:space="preserve" class=""><g><g data-name="27-Sale copy 6"><path fill="#f97316" d="M37.225 7.463 5.682 12.952a1.847 1.847 0 0 1-2.284-1.212 1.847 1.847 0 0 1 1.637-2.002L36.58 4.25a1.847 1.847 0 0 1 2.284 1.212 1.847 1.847 0 0 1-1.638 2.001Z" opacity="1" data-original="#57c1ef" class=""></path><path fill="#f97316" d="M3.513 12a2.105 2.105 0 0 1 1.522-1.131L36.58 5.38a1.949 1.949 0 0 1 2.169.88 1.411 1.411 0 0 0 .115-.87 1.847 1.847 0 0 0-2.284-1.212L5.035 9.667a1.847 1.847 0 0 0-1.637 2.001 1.358 1.358 0 0 0 .115.332Z" opacity="1" data-original="#38a4dd" class=""></path><path fill="#716969" d="M42 32a1 1 0 0 1-1-1v-2a1 1 0 0 1 2 0v2a1 1 0 0 1-1 1Z" opacity="1" data-original="#e0e0e0" class=""></path><circle cx="23" cy="15" r="4" fill="#f97316" opacity="1" data-original="#ffcb29" class=""></circle><circle cx="10" cy="17" r="4" fill="#f97316" opacity="1" data-original="#ffcb29" class=""></circle><circle cx="24" cy="45" r="4" fill="#f97316" opacity="1" data-original="#ffcb29" class=""></circle><circle cx="22" cy="37" r="4" fill="#f97316" opacity="1" data-original="#ffcb29" class=""></circle><circle cx="57" cy="47" r="4" fill="#f97316" opacity="1" data-original="#ffcb29" class=""></circle><circle cx="23" cy="15" r="1.25" fill="#716969" opacity="1" data-original="#fafbfb" class=""></circle><circle cx="57" cy="47" r="1.25" fill="#716969" opacity="1" data-original="#f5f5f5" class=""></circle><circle cx="24" cy="45" r="1.25" fill="#716969" opacity="1" data-original="#fafbfb" class=""></circle><circle cx="22" cy="37" r="1.25" fill="#716969" opacity="1" data-original="#fafbfb" class=""></circle><circle cx="10" cy="17" r="1.25" fill="#716969" opacity="1" data-original="#fafbfb" class=""></circle><rect width="10" height="4" x="5" y="45" fill="#716969" rx="2" opacity="1" data-original="#9e9d9e" class=""></rect><path fill="#716969" d="M7 47a2 2 0 0 1 2-2H7a2 2 0 0 0 0 4h2a2 2 0 0 1-2-2Z" opacity="1" data-original="#757576" class=""></path><rect width="10" height="4" x="5" y="49" fill="#716969" rx="2" opacity="1" data-original="#bdbdbd" class=""></rect><path fill="#716969" d="M7 51a2 2 0 0 1 2-2H7a2 2 0 0 0 0 4h2a2 2 0 0 1-2-2Z" opacity="1" data-original="#9e9d9e" class=""></path><rect width="10" height="4" x="5" y="53" fill="#716969" rx="2" opacity="1" data-original="#e0e0e0" class=""></rect><path fill="#716969" d="M7 55a2 2 0 0 1 2-2H7a2 2 0 0 0 0 4h2a2 2 0 0 1-2-2ZM61 59a2.015 2.015 0 0 1-2 2H5a2.006 2.006 0 0 1-2-2 2.015 2.015 0 0 1 2-2h54a2.006 2.006 0 0 1 2 2Z" opacity="1" data-original="#bdbdbd" class=""></path><path fill="#716969" d="M60.41 58.41A1.955 1.955 0 0 1 59 59H5a1.997 1.997 0 0 1-1.72-1A1.96 1.96 0 0 0 3 59a2.006 2.006 0 0 0 2 2h54a1.984 1.984 0 0 0 1.72-3 1.939 1.939 0 0 1-.31.41Z" opacity="1" data-original="#9e9d9e" class=""></path><path fill="#716969" d="M35.58 57h-4.13l-9.79-38.24A3.745 3.745 0 0 0 23 19a4.039 4.039 0 0 0 2.61-.97l1.31 5.1L30.98 39 32 43l1.02 4Z" opacity="1" data-original="#e0e0e0" class=""></path><path fill="#716969" d="M25.42 19a3.87 3.87 0 0 0 .429-.04l-.239-.93a4.123 4.123 0 0 1-1.4.766 3.757 3.757 0 0 0 1.21.204ZM23 19a3.745 3.745 0 0 1-1.34-.24L31.45 57h2.42l-9.773-38.172A3.913 3.913 0 0 1 23 19Z" opacity="1" data-original="#bdbdbd" class=""></path><path fill="#f97316" d="M46 41a2.015 2.015 0 0 1-2 2H32l-1.02-4-4.06-15.87a3.007 3.007 0 0 1 1.85-1.07 2.117 2.117 0 0 1 .49-.06 1.997 1.997 0 0 1 1.94 1.5L35.17 39H44a2.006 2.006 0 0 1 2 2Z" opacity="1" data-original="#44b3e6" class=""></path><path fill="#f97316" d="M44 39h-8.83L31.2 23.5a1.997 1.997 0 0 0-1.94-1.5 2.117 2.117 0 0 0-.49.06 3.162 3.162 0 0 0-1.772.982A2.087 2.087 0 0 1 27.34 23a1.997 1.997 0 0 1 1.94 1.5L33.25 40h8.83a2.006 2.006 0 0 1 2 2 1.96 1.96 0 0 1-.279 1H44a2.015 2.015 0 0 0 2-2 2.006 2.006 0 0 0-2-2Z" opacity="1" data-original="#38a4dd" class=""></path><path fill="#716969" d="M48 43v14h-4V47H33.02L32 43h16z" opacity="1" data-original="#e0e0e0" class=""></path><path fill="#716969" d="M44 47h2v10h-2zM46 46H32.765l.307 1H46v-1z" opacity="1" data-original="#bdbdbd" class=""></path><rect width="4" height="10" x="40" y="19" fill="#f97316" rx="2" opacity="1" data-original="#44b3e6" class=""></rect><path fill="#f97316" d="M42 27v-6a1.991 1.991 0 0 1 1-1.723A1.98 1.98 0 0 0 42 19a2 2 0 0 0-2 2v6a2 2 0 0 0 2 2 1.98 1.98 0 0 0 1-.277A1.991 1.991 0 0 1 42 27Z" opacity="1" data-original="#38a4dd" class=""></path><path d="M23 12.75A2.25 2.25 0 1 0 25.25 15 2.253 2.253 0 0 0 23 12.75ZM22.75 15a.25.25 0 0 1 .5 0c0 .275-.5.275-.5 0ZM57 49.25A2.25 2.25 0 1 0 54.75 47 2.253 2.253 0 0 0 57 49.25Zm0-2.5a.25.25 0 0 1 .25.25c0 .275-.5.275-.5 0a.25.25 0 0 1 .25-.25Zm-33 .5A2.25 2.25 0 1 0 21.75 45 2.253 2.253 0 0 0 24 47.25Zm0-2.5a.25.25 0 0 1 .25.25c0 .275-.5.275-.5 0a.25.25 0 0 1 .25-.25Zm-2-10A2.25 2.25 0 1 0 24.25 37 2.253 2.253 0 0 0 22 34.75ZM21.75 37a.25.25 0 0 1 .5 0c0 .275-.5.275-.5 0Zm-9.5-20A2.25 2.25 0 1 0 10 19.25 2.253 2.253 0 0 0 12.25 17Zm-2.5 0a.25.25 0 0 1 .5 0c0 .275-.5.275-.5 0ZM59 56H49v-8h3.101a5 5 0 1 0 0-2H49v-3a1 1 0 0 0-1-1h-1.182A2.975 2.975 0 0 0 44 38h-8.054L32.17 23.253A2.998 2.998 0 0 0 29.26 21a3.153 3.153 0 0 0-.735.09 2.989 2.989 0 0 0-.983.457l-.827-3.232A4.97 4.97 0 0 0 27.899 16H38a3.003 3.003 0 0 1 3 3v.184A2.995 2.995 0 0 0 39 22v5a2.995 2.995 0 0 0 2 2.816V31a1 1 0 0 0 2 0v-1.184A2.995 2.995 0 0 0 45 27v-5a2.995 2.995 0 0 0-2-2.816V19a5.006 5.006 0 0 0-5-5H27.899a5.003 5.003 0 0 0-2.019-3.074l11.517-2.004.026-.005A3.23 3.23 0 0 0 39.29 7.82a2.51 2.51 0 0 0 .552-2.082 2.512 2.512 0 0 0-1.314-1.707 3.223 3.223 0 0 0-2.121-.293L4.838 9.231a2.84 2.84 0 0 0-2.421 3.179 2.745 2.745 0 0 0 2.784 2.066 3.335 3.335 0 0 0 .537-.054A4.948 4.948 0 0 0 5 17a5.008 5.008 0 0 0 4 4.899V44H7a2.987 2.987 0 0 0-2.22 5 2.953 2.953 0 0 0 0 4 2.947 2.947 0 0 0-.56 3.114 2.87 2.87 0 0 0-1.328.76A2.945 2.945 0 0 0 2 59a3.003 3.003 0 0 0 3 3h54a3.013 3.013 0 0 0 3-3 3.003 3.003 0 0 0-3-3Zm-2-12a3 3 0 1 1-3 3 3.003 3.003 0 0 1 3-3ZM43 27a1 1 0 0 1-2 0v-5a1 1 0 0 1 2 0Zm4 29h-2v-9a1 1 0 0 0-1-1H33.798l-.512-2H47ZM6 55a1 1 0 0 1 1-1h6a1 1 0 0 1 0 2H7a1 1 0 0 1-1-1Zm0-4a1 1 0 0 1 1-1h6a1 1 0 0 1 0 2H7a1 1 0 0 1-1-1Zm9.22 2a2.953 2.953 0 0 0 0-4A2.987 2.987 0 0 0 13 44h-1.95l8.25-25.667a5 5 0 0 0 1.51 1.14l3.336 13.03A4.941 4.941 0 0 0 22 32a4.989 4.989 0 0 0-1.71 9.68 4.985 4.985 0 1 0 7.79 6.191L30.163 56H15.816a2.906 2.906 0 0 0-.596-3ZM22 40a3 3 0 1 1 3-3 3.003 3.003 0 0 1-3 3Zm2 2a3 3 0 1 1-3 3 3.003 3.003 0 0 1 3-3Zm1.71-1.68a4.986 4.986 0 0 0 .334-.404l.159.618a4.94 4.94 0 0 0-.493-.213ZM32.226 56 23.01 19.999a4.963 4.963 0 0 0 1.967-.41L34.292 56Zm4.13 0-2.046-8H43v8Zm-7.954-32.513a1 1 0 0 1 1.83.261l3.97 15.5a1 1 0 0 0 .968.752H44a1 1 0 0 1 1 1 .977.977 0 0 1-.306.713A.96.96 0 0 1 44 42H32.775l-4.54-17.746.063-.017a.98.98 0 0 1 .104-.75ZM23 18a3 3 0 1 1 3-3 3.003 3.003 0 0 1-3 3Zm-5-3a4.911 4.911 0 0 0 .067.66c-.005.013-.015.021-.02.034L11 37.62V21.899a4.975 4.975 0 0 0 2.142-8.756l5.769-1.004A4.962 4.962 0 0 0 18 15ZM4.378 12.016c-.06-.296.293-.711.829-.819l31.57-5.493a1.385 1.385 0 0 1 .28-.028 1.145 1.145 0 0 1 .534.123.532.532 0 0 1 .291.334.534.534 0 0 1-.139.42 1.24 1.24 0 0 1-.703.4L5.484 12.446c-.56.114-1.047-.133-1.106-.43ZM7 17a3 3 0 1 1 3 3 3.003 3.003 0 0 1-3-3Zm0 29h6a1 1 0 0 1 0 2H7a1 1 0 0 1 0-2Zm52.694 13.713A.96.96 0 0 1 59 60H5a1 1 0 0 1-1-1 .979.979 0 0 1 .306-.713A.96.96 0 0 1 5 58h54a1 1 0 0 1 1 1 .977.977 0 0 1-.306.713Z" fill="#101010" opacity="1" data-original="#000000" class=""></path></g></g></svg>