<svg xmlns="http://www.w3.org/2000/svg" version="1.1" xmlns:xlink="http://www.w3.org/1999/xlink" width="512" height="512" x="0" y="0" viewBox="0 0 64 64" style="enable-background:new 0 0 512 512" xml:space="preserve" class=""><g><g data-name="08-Lat Pulldown"><path fill="#101010" d="M18 7h4v50h-4z" opacity="1" data-original="#e0e0e0" class=""></path><path fill="#101010" d="M18 7h2v50h-2z" opacity="1" data-original="#e0e0e0" class=""></path><path fill="#101010" d="M20 7h2v50h-2z" opacity="1" data-original="#bdbdbd" class=""></path><path fill="#101010" d="M42 7h4v50h-4z" opacity="1" data-original="#e0e0e0" class=""></path><path fill="#101010" d="M44 7h2v50h-2z" opacity="1" data-original="#bdbdbd" class=""></path><rect width="58" height="4" x="3" y="57" fill="#101010" rx="1" opacity="1" data-original="#757575" class=""></rect><path fill="#101010" d="M60 57h-4v1a1 1 0 0 1-1 1H4a1 1 0 0 1-1-1v2a1 1 0 0 0 1 1h56a1 1 0 0 0 1-1v-2a1 1 0 0 0-1-1Z" opacity="0" data-original="#616161" class=""></path><path fill="#101010" d="M20 3h24a2 2 0 0 1 2 2v2H18V5a2 2 0 0 1 2-2Z" opacity="1" data-original="#eeeeee" class=""></path><path fill="#101010" d="M44 3h-3a2 2 0 0 1-2 2H18v2h28V5a2 2 0 0 0-2-2Z" opacity="1" data-original="#e0e0e0" class=""></path><path fill="#101010" d="M22 33h20v24H22z" opacity="0" data-original="#616161" class=""></path><path fill="#101010" d="M55.414 22.603 50 17.189a4 4 0 0 0-2.829-1.172H16.83A4 4 0 0 0 14 17.189l-5.414 5.414a2 2 0 0 0 .257 3.046 2.076 2.076 0 0 0 2.648-.294l5.337-5.338h30.344l5.337 5.337a2.076 2.076 0 0 0 2.648.295 2 2 0 0 0 .257-3.046Z" opacity="1" data-original="#eeeeee" class=""></path><path fill="#101010" d="m53.51 23.354-5.338-5.337H15.828l-5.337 5.337a2.092 2.092 0 0 1-2.473.396 2 2 0 0 0 .825 1.9 2.076 2.076 0 0 0 2.648-.296l5.337-5.337h30.344l5.337 5.337a2.076 2.076 0 0 0 2.648.295 2 2 0 0 0 .825-1.899 2.092 2.092 0 0 1-2.473-.396Z" opacity="1" data-original="#e0e0e0" class=""></path><rect width="10" height="6" x="27" y="15" fill="#101010" rx="1" opacity="1" data-original="#757575" class=""></rect><path fill="#101010" d="M36 15h-3a1 1 0 0 1 1 1v1a1 1 0 0 1-1 1h-5a1 1 0 0 1-1-1v3a1 1 0 0 0 1 1h8a1 1 0 0 0 1-1v-4a1 1 0 0 0-1-1Z" opacity="0" data-original="#616161" class=""></path><path d="M60 56H47V21.26l4.802 4.802a3.184 3.184 0 0 0 2.245.934 2.887 2.887 0 0 0 1.694-.536 3 3 0 0 0 .38-4.564l-5.414-5.415a4.967 4.967 0 0 0-3.536-1.464H47V5a3.003 3.003 0 0 0-3-3H20a3.003 3.003 0 0 0-3 3v10.017h-.171a4.967 4.967 0 0 0-3.536 1.464L7.88 21.896a3 3 0 0 0 .38 4.564 2.887 2.887 0 0 0 1.694.536 3.184 3.184 0 0 0 2.245-.934L17 21.259V56H4a2.002 2.002 0 0 0-2 2v2a2.002 2.002 0 0 0 2 2h56a2.002 2.002 0 0 0 2-2v-2a2.002 2.002 0 0 0-2-2Zm-17 0V21.017h2V56ZM26.287 21.017A1.994 1.994 0 0 0 28 22h3v10h-8V21.017ZM31 8v6h-3a1.993 1.993 0 0 0-1.731 1.017H23V8Zm6.731 7.017A1.993 1.993 0 0 0 36 14h-3V8h8v7.017ZM23 34h18v6H23Zm0 8h18v6H23Zm18-10h-8V22h3a1.994 1.994 0 0 0 1.713-.983H41Zm-5-16 .001 4H28v-4ZM23 50h18v6H23Zm26.292-32.104 5.415 5.415a1.001 1.001 0 0 1-.134 1.526 1.086 1.086 0 0 1-1.357-.19L47.88 19.31a1 1 0 0 0-.707-.293H38v-2h9.171a2.98 2.98 0 0 1 2.121.879ZM43 15.017V8h2v7.017ZM20 4h24a1.001 1.001 0 0 1 1 1v1H19V5a1.001 1.001 0 0 1 1-1Zm-1 4h2v7.017h-2Zm-2.879 11.31-5.337 5.337a1.085 1.085 0 0 1-1.357.19 1.001 1.001 0 0 1-.134-1.527l5.415-5.414a2.98 2.98 0 0 1 2.12-.879H26v2h-9.172a1 1 0 0 0-.707.293ZM19 21.017h2V56h-2ZM4 60v-2h56l.001 2Zm29-23a1 1 0 1 1-1-1 1 1 0 0 1 1 1Zm0 8a1 1 0 1 1-1-1 1 1 0 0 1 1 1Zm0 8a1 1 0 1 1-1-1 1 1 0 0 1 1 1Z" fill="#101010" opacity="0.5490196078431373" data-original="#000000" class=""></path></g></g></svg>