<svg id="Layer_1" height="512" viewBox="0 0 48 48" width="512" xmlns="http://www.w3.org/2000/svg" data-name="Layer 1"><path d="m11 14h-8a3 3 0 0 1 -3-3v-8a3 3 0 0 1 3-3h8a3 3 0 0 1 3 3v8a3 3 0 0 1 -3 3zm-8-12a1 1 0 0 0 -1 1v8a1 1 0 0 0 1 1h8a1 1 0 0 0 1-1v-8a1 1 0 0 0 -1-1z"/><path d="m28 14h-8a3 3 0 0 1 -3-3v-8a3 3 0 0 1 3-3h8a3 3 0 0 1 3 3v8a3 3 0 0 1 -3 3zm-8-12a1 1 0 0 0 -1 1v8a1 1 0 0 0 1 1h8a1 1 0 0 0 1-1v-8a1 1 0 0 0 -1-1z"/><path d="m45 14h-8a3 3 0 0 1 -3-3v-8a3 3 0 0 1 3-3h8a3 3 0 0 1 3 3v8a3 3 0 0 1 -3 3zm-8-12a1 1 0 0 0 -1 1v8a1 1 0 0 0 1 1h8a1 1 0 0 0 1-1v-8a1 1 0 0 0 -1-1z"/><path d="m11 31h-8a3 3 0 0 1 -3-3v-8a3 3 0 0 1 3-3h8a3 3 0 0 1 3 3v8a3 3 0 0 1 -3 3zm-8-12a1 1 0 0 0 -1 1v8a1 1 0 0 0 1 1h8a1 1 0 0 0 1-1v-8a1 1 0 0 0 -1-1z"/><path d="m28 31h-8a3 3 0 0 1 -3-3v-8a3 3 0 0 1 3-3h8a3 3 0 0 1 3 3v8a3 3 0 0 1 -3 3zm-8-12a1 1 0 0 0 -1 1v8a1 1 0 0 0 1 1h8a1 1 0 0 0 1-1v-8a1 1 0 0 0 -1-1z"/><path d="m45 31h-8a3 3 0 0 1 -3-3v-8a3 3 0 0 1 3-3h8a3 3 0 0 1 3 3v8a3 3 0 0 1 -3 3zm-8-12a1 1 0 0 0 -1 1v8a1 1 0 0 0 1 1h8a1 1 0 0 0 1-1v-8a1 1 0 0 0 -1-1z"/><path d="m11 48h-8a3 3 0 0 1 -3-3v-8a3 3 0 0 1 3-3h8a3 3 0 0 1 3 3v8a3 3 0 0 1 -3 3zm-8-12a1 1 0 0 0 -1 1v8a1 1 0 0 0 1 1h8a1 1 0 0 0 1-1v-8a1 1 0 0 0 -1-1z"/><path d="m28 48h-8a3 3 0 0 1 -3-3v-8a3 3 0 0 1 3-3h8a3 3 0 0 1 3 3v8a3 3 0 0 1 -3 3zm-8-12a1 1 0 0 0 -1 1v8a1 1 0 0 0 1 1h8a1 1 0 0 0 1-1v-8a1 1 0 0 0 -1-1z"/><path d="m45 48h-8a3 3 0 0 1 -3-3v-8a3 3 0 0 1 3-3h8a3 3 0 0 1 3 3v8a3 3 0 0 1 -3 3zm-8-12a1 1 0 0 0 -1 1v8a1 1 0 0 0 1 1h8a1 1 0 0 0 1-1v-8a1 1 0 0 0 -1-1z"/></svg>