<svg fill="none" height="512" viewBox="0 0 24 24" width="512" xmlns="http://www.w3.org/2000/svg"><path d="m11.2461 15h-6.492l-2 5h-2.154002l6.400002-16h2l6.4 16h-2.154zm-.8-2-2.446-6.115-2.446 6.115zm10.554-.465v-.535h2v8h-2v-.535c-.6081.3507-1.2978.5352-1.9998.535s-1.3916-.1852-1.9994-.5363c-.6079-.3512-1.1126-.8561-1.4636-1.4641-.3509-.608-.5356-1.2976-.5356-1.9996s.1847-1.3916.5356-1.9996c.351-.608.8557-1.1129 1.4636-1.4641.6078-.3511 1.2974-.5361 1.9994-.5363s1.3917.1843 1.9998.535zm-2 5.465c.5304 0 1.0391-.2107 1.4142-.5858s.5858-.8838.5858-1.4142-.2107-1.0391-.5858-1.4142-.8838-.5858-1.4142-.5858-1.0391.2107-1.4142.5858-.5858.8838-.5858 1.4142.2107 1.0391.5858 1.4142.8838.5858 1.4142.5858z" fill="rgb(0,0,0)"/></svg>