<svg xmlns="http://www.w3.org/2000/svg" fill="#f97316" version="1.1" viewBox="-5.0 -10.0 110.0 135.0">
 <path d="m41.359 99.891c-15.496 0-29.273-7.582-40.941-22.539-0.1875-0.24609-0.30469-0.53906-0.32813-0.84375-1.6367-21.98 19.918-57.566 32.445-71.312 2.6055-2.8594 4.1641-3.0586 6.9258-3.1797 0.51562-0.023437 1.0898-0.046875 1.75-0.10156 1.2305-0.10156 3.1094-0.30859 5.2812-0.55078 5.0547-0.55859 11.344-1.25 14.91-1.25 0.75391 0 1.3555 0.03125 1.8359 0.09375 3.4766 0.45703 4.6797 3.8008 5.2539 5.4062 0.23047 0.63672 0.57422 1.4844 0.97656 2.4688 2.8281 6.9375 5.1523 13.445 2.5586 16.797-0.94922 1.2227-3.4766 3.0742-6.4375 5.1875l-0.48438 0.34375c-1.7969 1.2852-3.7734 1.9375-5.8789 1.9375-3.6055 0-6.9961-1.8398-10.273-3.6172-1.1133-0.60547-2.168-1.1758-3.2109-1.6641-0.9375-0.44141-1.7266-0.66406-2.3398-0.66406-0.47656 0-1.4727 0-2.0273 2.5273l-5.9258 26.93c3.8438-3.8555 9.6406-7.5664 16.895-7.5664 5.0195 0 10.066 1.793 15.027 5.3359 4.6719-4.9492 14.836-9.9258 30.676-10.188h0.023437c0.40625 0 0.80078 0.16016 1.0938 0.44531 0.29688 0.29297 0.46875 0.69141 0.46875 1.1055l0.37109 52.047c0.007813 0.75-0.52344 1.3945-1.2539 1.543-0.14844 0.03125-3.6953 0.72656-8.6836 0.72656-6.5078 0-15.555-1.207-22.445-6.8086-3.1562 1.9336-13.223 7.3945-26.258 7.3945zm-38.184-24.086c10.98 13.91 23.828 20.961 38.184 20.961 14.535 0 25.391-7.418 25.5-7.4961 0.59375-0.41016 1.3945-0.36328 1.9336 0.12109 6.2539 5.6133 15.02 6.7891 21.27 6.7891 2.9727 0 5.4102-0.26563 6.8047-0.46094l-0.35156-49.113c-15.035 0.5625-24.137 5.5273-27.68 10.102-0.52734 0.68359-1.5078 0.80469-2.1914 0.28125-4.7773-3.6953-9.5938-5.5703-14.305-5.5703-9.6328 0-16.344 7.6211-18.547 11.648-0.37109 0.68359-1.1914 0.98828-1.918 0.71484s-1.1445-1.0391-0.97656-1.8008l7.4219-33.723c0.90625-4.1172 3.2617-4.9805 5.082-4.9805 1.0938 0 2.293 0.31641 3.6719 0.96094 1.1211 0.52734 2.2656 1.1484 3.3711 1.7461 2.9375 1.5938 5.9688 3.2383 8.7812 3.2383 1.4609 0 2.7891-0.44531 4.0625-1.3555l0.48438-0.34766c1.8867-1.3477 5.0391-3.5977 5.7812-4.5586 1.707-2.207-1.4609-9.9727-2.9805-13.707-0.41406-1.0156-0.76953-1.8906-1.0234-2.5898-0.83594-2.332-1.5508-3.2109-2.7188-3.3672-0.33984-0.042969-0.82422-0.066406-1.4297-0.066406-3.3945 0-9.8516 0.71094-14.566 1.2305-2.1953 0.24219-4.0898 0.45312-5.3633 0.55859-0.70703 0.058594-1.3203 0.085938-1.875 0.10938-2.2266 0.10156-2.9023 0.12891-4.75 2.1641-13.75 15.09-32.77 49.094-31.668 68.508z" fill-rule="evenodd"/>
 <path d="m40.352 85.551c-5.7773 0-12.285-1.2539-19.34-4.8672-0.76953-0.39453-1.0742-1.3359-0.67969-2.1055s1.3359-1.0703 2.1016-0.67969c14.145 7.25 25.984 4.2539 33.664 1.3711 0.80469-0.30078 1.7109 0.10547 2.0117 0.91406 0.30469 0.80859-0.10547 1.7109-0.91406 2.0117-4.4258 1.6602-10.141 3.3516-16.848 3.3516z" fill-rule="evenodd"/>
 <path d="m84.91 84.957c-3.9375 0-9.2383-0.6875-14.961-3.3516-0.78125-0.36328-1.1211-1.2969-0.75781-2.0781 0.36719-0.78125 1.2969-1.1172 2.0781-0.75781 10.484 4.8906 19.5 2.4375 19.59 2.4141 0.82812-0.23828 1.6914 0.25 1.9258 1.0781 0.23438 0.83203-0.25 1.6953-1.0781 1.9258-0.20703 0.058594-2.8008 0.76562-6.7969 0.76562z" fill-rule="evenodd"/>
</svg>