<svg xmlns="http://www.w3.org/2000/svg" fill="#f97316" version="1.1" viewBox="-5.0 -10.0 110.0 135.0">
 <path d="m72.574 87.25c2.2266 2.1758 4.2266 4.8516 4.9492 10.551 0.17578 1.375 1.4258 2.3516 2.7734 2.1758 1.375-0.17578 2.3516-1.4258 2.1758-2.7734-1-8.125-4.0508-11.352-7.25-14.324 1.3516-2.625 2.25-5.375 2.25-7.875 0-6.1484-2.3008-12.023-2.5-21.375 6.6992-5.9492 11.148-13.102 12.25-22.051 4.375 1.75 8.375 0.89844 11.898-2.1992 1.0234-0.92578 1.125-2.5 0.22656-3.5234-0.92578-1.0234-2.5-1.125-3.5234-0.22656-2.7266 2.3984-5.8984 2.2734-9.4258-0.17578-0.75-0.52344-1.75-0.60156-2.5742-0.17578-0.82422 0.42578-1.3516 1.2734-1.3516 2.1992-0.050781 9.7266-4.5508 17.102-11.625 23.102-0.55078 0.47656-0.875 1.1758-0.875 1.8984 0 10 2.5 16.102 2.5 22.5 0 2.5742-1.4766 5.4766-3.125 8.0508-2.7266 4.2734-6.1484 7.6758-6.1484 7.6758-0.97656 0.97656-0.97656 2.5508 0 3.5508 0.97656 0.97656 2.5508 0.97656 3.5508 0 0 0 3-3.0234 5.8008-7.0234zm-47.824-4.375c-3.1758 2.9766-6.25 6.1992-7.25 14.324-0.17578 1.375 0.80078 2.625 2.1758 2.7734 1.375 0.17578 2.625-0.80078 2.7734-2.1758 0.69922-5.6992 2.7266-8.375 4.9492-10.551 2.8008 4 5.8008 7.0234 5.8008 7.0234 0.97656 0.97656 2.5508 0.97656 3.5508 0 0.97656-0.97656 0.97656-2.5508 0-3.5508 0 0-3.4258-3.3984-6.1484-7.6758-1.6484-2.5742-3.125-5.4766-3.125-8.0508 0-6.3984 2.5-12.5 2.5-22.5 0-0.72656-0.32422-1.4258-0.875-1.8984-7.0742-6-11.551-13.375-11.625-23.102 0-0.92578-0.52344-1.7734-1.3516-2.1992-0.82422-0.42578-1.8242-0.35156-2.5742 0.17578-3.5234 2.4492-6.6992 2.5742-9.4258 0.17578-1.0234-0.89844-2.625-0.82422-3.5234 0.22656-0.89844 1.0234-0.82422 2.625 0.22656 3.5234 3.5234 3.125 7.5234 3.9492 11.898 2.1992 1.0742 8.9492 5.5508 16.102 12.25 22.051-0.17578 9.3516-2.5 15.227-2.5 21.375 0 2.5 0.92578 5.25 2.25 7.875zm22.75-24.273c-1.6992 0.92578-3.3516 1.3984-5.0234 1.3984-2.0742 0-4.0742-0.69922-6.0742-2.0742-1.1484-0.77344-2.6992-0.47656-3.4766 0.64844-0.77344 1.1484-0.47656 2.6992 0.64844 3.4766 2.9258 2 5.8984 2.9492 8.9258 2.9258 1.6484 0 3.3008-0.30078 4.9766-0.92578v4.5234c-1.6992 0.92578-3.3516 1.3984-5.0234 1.3984-2.0742 0-4.0742-0.69922-6.0742-2.0742-1.1484-0.77344-2.6992-0.47656-3.4766 0.64844-0.77344 1.1484-0.47656 2.6992 0.64844 3.4766 2.9258 2 5.8984 2.9492 8.9258 2.9258 1.6484 0 3.3008-0.30078 4.9766-0.92578v4.5234c-1.6992 0.92578-3.3516 1.3984-5.0234 1.3984-2.0742 0-4.0742-0.69922-6.0742-2.0742-1.1484-0.77344-2.6992-0.47656-3.4766 0.64844-0.77344 1.1484-0.47656 2.6992 0.64844 3.4766 2.9258 2 5.8984 2.9492 8.9258 2.9258 2.4492 0 4.9492-0.67578 7.4766-2.0742 2.4766 1.3984 5 2.0742 7.5234 2.0742 2.8984 0 5.8516-0.94922 8.8516-2.8984 1.1484-0.75 1.4766-2.3008 0.72656-3.4492-0.75-1.1484-2.3008-1.4766-3.4492-0.72656-2.1016 1.375-4.125 2.0742-6.1484 2.1016-1.6992 0-3.3516-0.47656-4.9766-1.3984v-4.5c1.6484 0.60156 3.3242 0.89844 5.0234 0.89844 2.8984 0 5.8516-0.94922 8.8516-2.8984 1.1484-0.75 1.4766-2.3008 0.72656-3.4492-0.75-1.1484-2.3008-1.4766-3.4492-0.72656-2.1016 1.375-4.125 2.0742-6.1484 2.1016-1.6992 0-3.3516-0.47656-4.9766-1.3984v-4.5c1.6484 0.60156 3.3242 0.89844 5.0234 0.89844 2.8984 0 5.8516-0.94922 8.8516-2.8984 1.1484-0.75 1.4766-2.3008 0.72656-3.4492-0.75-1.1484-2.3008-1.4766-3.4492-0.72656-2.1016 1.375-4.125 2.0742-6.1484 2.1016-1.6992 0-3.3516-0.47656-4.9766-1.3984v-1.1016c0-1.375-1.125-2.5-2.5-2.5s-2.5 1.125-2.5 2.5v1.1016zm0-28.602v10c0 1.25-0.875 2.375-2.1758 3.2734-2.6992 1.875-7.125 2.7266-12.375 1.7734-1.3516-0.25-2.6484 0.64844-2.8984 2.0234-0.25 1.3516 0.64844 2.6484 2.0234 2.8984 6.8242 1.2266 12.574-0.14844 16.102-2.5742 0.69922-0.47656 1.3008-1 1.8516-1.5508 0.52344 0.55078 1.1484 1.0742 1.8516 1.5508 3.5234 2.4258 9.2734 3.8008 16.102 2.5742 1.3516-0.25 2.25-1.5508 2.0234-2.8984-0.25-1.3516-1.5508-2.25-2.8984-2.0234-5.2266 0.94922-9.6758 0.10156-12.375-1.7734-1.3008-0.89844-2.1758-2-2.1758-3.2734v-10c0-1.375-1.125-2.5-2.5-2.5s-2.5 1.125-2.5 2.5zm15 7.5c1.375 0 2.5 1.125 2.5 2.5s-1.125 2.5-2.5 2.5-2.5-1.125-2.5-2.5 1.125-2.5 2.5-2.5zm-25 0c1.375 0 2.5 1.125 2.5 2.5s-1.125 2.5-2.5 2.5-2.5-1.125-2.5-2.5 1.125-2.5 2.5-2.5zm-0.82422-31.102c-3.25-2.2734-7.1484-3.8984-11.676-3.8984-3.3242 0-5.8242 1.6992-7.4492 3.3516-1.5508-1.75-3.8984-3.75-6.9492-4.5234-6.8516-1.7266-10.328 5.0469-10.328 5.0469-0.625 1.2266-0.125 2.75 1.125 3.3516 1.2266 0.625 2.75 0.125 3.3516-1.125 0 0 1.5234-3.2266 4.6484-2.4492 3.8242 0.94922 5.8984 5 5.8984 5 0.44922 0.82422 1.3008 1.3516 2.25 1.3242 0.94922 0 1.8008-0.55078 2.1992-1.375 0 0 1.7266-3.625 5.2734-3.625 4.4258 0 8.0742 2.1484 10.875 4.6484 4.4492 3.9766 6.875 8.9492 6.875 8.9492 0.60156 1.25 2.1016 1.75 3.3516 1.1484 1.25-0.60156 1.75-2.1016 1.1484-3.3516 0 0-2.25-4.6758-6.5-9.0234 2.625-1.7266 3.7266-4.1758 4.1992-6.9766 0.22656-1.3516-0.67578-2.6484-2.0234-2.8984-1.3516-0.22656-2.6484 0.67578-2.8984 2.0234-0.32422 1.8242-1.1016 3.4492-3.375 4.3242zm22.574 3.5c-4.2266 4.3242-6.5 9.0234-6.5 9.0234-0.60156 1.25-0.074219 2.75 1.1484 3.3516 1.25 0.60156 2.75 0.074218 3.3516-1.1484 0 0 2.3984-4.9766 6.875-8.9492 2.8008-2.5 6.4492-4.6484 10.875-4.6484 3.5508 0 5.2734 3.625 5.2734 3.625 0.42578 0.82422 1.2734 1.375 2.1992 1.375 0.92578 0 1.8008-0.5 2.25-1.3242 0 0 2.0508-4.0234 5.8984-5 3.125-0.77344 4.6484 2.4492 4.6484 2.4492 0.625 1.2266 2.125 1.7266 3.3516 1.125 1.2266-0.625 1.7266-2.125 1.125-3.3516 0 0-3.4766-6.7734-10.352-5.0508-3.0508 0.77344-5.3984 2.7734-6.9492 4.5234-1.625-1.6484-4.1016-3.3516-7.4492-3.3516-4.5 0-8.4258 1.625-11.676 3.8984-2.2734-0.875-3.0508-2.5-3.375-4.3242-0.25-1.3516-1.5234-2.2734-2.8984-2.0234-1.3516 0.25-2.2734 1.5234-2.0234 2.8984 0.47656 2.7734 1.6016 5.25 4.1992 6.9766z" fill-rule="evenodd"/>
</svg>