<svg xmlns="http://www.w3.org/2000/svg" version="1.1" xmlns:xlink="http://www.w3.org/1999/xlink" width="512" height="512" x="0" y="0" viewBox="0 0 512 512" style="enable-background:new 0 0 512 512" xml:space="preserve" class=""><g><path fill="#0f1115" d="M191.981 18.322c6.059.022 11.187 4.491 12.007 10.494 4.148 30.365 20.402 102.932 21.14 158.262.846 63.45-28.764 115.901-28.764 160.739 0 29.366 8.367 75.062 14.142 103.101 2.686 13.044-6.776 25.452-20.064 26.336l-15.477-4.269a16.138 16.138 0 0 0-15.701 4.145 34.838 34.838 0 0 1-22.747 10.153l-83.405 4.526c-6.743.366-12.411-5.003-12.411-11.756a26.306 26.306 0 0 1 13.544-23.003l58.356-32.376a31.18 31.18 0 0 0 15.952-29.777c-3.15-38.963-8.662-77.709-16.821-115.937-28.682-134.389-11.514-203.131-.393-251.453a12.163 12.163 0 0 1 11.9-9.432z" opacity="1" data-original="#484f69"></path><path fill="#fb923c" d="M186.936 109.942c1.164-4.913 7.944-5.474 9.878-.81 5.578 13.456 12.596 36.351 11.862 65.199-.722 28.337-8.411 55.696-14.45 73.058-1.799 5.171-9.324 4.436-10.083-.986l-5.667-40.486a203.453 203.453 0 0 1 3.521-75.132zM126.695 84.528l6.085 17.707c12.894 37.524 20.336 77.75 21.96 118.701l4.55 114.736c.296 7.469-7.698 9.913-10.062 3.076l-17.37-50.237c-10.754-31.103-16.86-64.54-17.788-98.54-.768-28.135.415-63.947 6.614-104.595.594-3.899 4.762-4.483 6.011-.848z" opacity="1" data-original="#ff004f" class=""></path><path fill="#0f1115" d="M315.418 18.322c-6.059.022-11.187 4.491-12.007 10.494-4.148 30.365-20.402 102.932-21.14 158.262-.846 63.45 28.764 115.901 28.764 160.739 0 29.366-8.367 75.062-14.142 103.101-2.686 13.044 6.776 25.452 20.064 26.336l15.477-4.269a16.138 16.138 0 0 1 15.701 4.145 34.836 34.836 0 0 0 22.747 10.153l83.405 4.526c6.743.366 12.411-5.003 12.411-11.756a26.306 26.306 0 0 0-13.544-23.003l-58.356-32.376a31.18 31.18 0 0 1-15.952-29.777c3.15-38.963 8.662-77.709 16.821-115.937 28.682-134.389 11.514-203.131.393-251.453a12.163 12.163 0 0 0-11.9-9.432z" opacity="1" data-original="#484f69"></path><g fill="#ff004f"><path d="M320.463 109.942c-1.164-4.913-7.944-5.474-9.878-.81-5.578 13.456-12.596 36.351-11.862 65.199.722 28.337 8.411 55.696 14.45 73.058 1.799 5.171 9.324 4.436 10.083-.986l5.667-40.486a203.453 203.453 0 0 0-3.521-75.132zM380.704 84.528l-6.085 17.707c-12.894 37.524-20.336 77.75-21.96 118.701l-4.55 114.736c-.296 7.469 7.698 9.913 10.062 3.076l17.37-50.237c10.754-31.103 16.86-64.54 17.788-98.54.768-28.135-.415-63.947-6.613-104.595-.595-3.899-4.763-4.483-6.012-.848z" fill="#fb923c" opacity="1" data-original="#ff004f" class=""></path></g></g></svg>