<svg xmlns="http://www.w3.org/2000/svg" fill="#f97316" viewBox="0 0 512 640" x="0px" y="0px"><title>body part anatomy leg muscle foot</title><path d="M275.08,174.62l0-.06a.2.2,0,0,1,0-.07,53,53,0,0,0-13.94-22,5.33,5.33,0,0,0-7.1,8c.08.07,7.77,7.13,10.81,17.12,19.38,70.89-20,117.47-20.41,117.92a5.49,5.49,0,0,0-1.19,2.34c-9.23,41-10.33,101-10.37,103.53a5.33,5.33,0,0,0,1.76,4.05,63.55,63.55,0,0,1,18,27.44,23.09,23.09,0,0,1-3.21,21,23.44,23.44,0,0,1-19.25,9.87h-2.5a7.91,7.91,0,0,1-5-1.77,18.63,18.63,0,0,0-22.31-.85l-1.74,1.21a7.81,7.81,0,0,1-4.5,1.41H105.15a3,3,0,0,1-3-3,3,3,0,0,1,2.37-2.94c37-6.93,60.68-24.19,74.09-37.44a35.59,35.59,0,0,0,9.88-31.79C165.73,264.71,175.77,147,175.88,145.77a6,6,0,0,0,0-1.12c-6.4-52.11,30.65-57.46,32.21-57.65a5.28,5.28,0,0,0,1.45-.39l40.39-17A268.91,268.91,0,0,1,355.05,48.28h3.35a5.34,5.34,0,0,0,0-10.67h-3.35A279.49,279.49,0,0,0,245.76,59.73L206,76.52a49.85,49.85,0,0,0-29.8,18c-9.8,12.49-13.5,29.62-11,50.92-.74,9.1-9.41,124.22,12.78,245.06a24.91,24.91,0,0,1-6.88,22.28c-12.35,12.21-34.26,28.11-68.56,34.55a13.68,13.68,0,0,0,2.61,27.1h88.93a18.41,18.41,0,0,0,10.59-3.32l1.74-1.21a7.93,7.93,0,0,1,9.48.36,18.6,18.6,0,0,0,11.72,4.17h2.5A34,34,0,0,0,258,460.08a33.63,33.63,0,0,0,4.67-30.67,74.12,74.12,0,0,0-19.13-30.28c.3-11.49,2-62.32,9.79-97.75C259.7,293.51,294.63,246,275.08,174.62Z"/><path d="M412.34,153.75a40.11,40.11,0,0,1-6.25,3.22C371.6,171,329.33,173.2,299.94,172.54a5.34,5.34,0,1,0-.23,10.67q4.49.1,9.35.11c29.6,0,68.44-3.18,101.06-16.47a50.36,50.36,0,0,0,7.93-4.09,5.33,5.33,0,1,0-5.71-9Z"/><path d="M210.11,203.14a5.35,5.35,0,0,0-6,4.62c-6.09,47.59,19,74.05,20.06,75.15a5.34,5.34,0,0,0,7.66-7.44c-.23-.23-22.58-23.81-17.14-66.36A5.33,5.33,0,0,0,210.11,203.14Z"/><path d="M369.13,99.4a5.34,5.34,0,0,0,0,10.67,157.87,157.87,0,0,1,17.26,1,5.83,5.83,0,0,0,.59,0,5.34,5.34,0,0,0,.59-10.64,168.91,168.91,0,0,0-18.41-1Z"/><path d="M266.54,127.74a5.33,5.33,0,1,0,6.78,8.23c.27-.21,26.75-21.67,68.58-25.36A5.34,5.34,0,0,0,341,100C295.88,104,267.72,126.77,266.54,127.74Z"/></svg>